HIERARCHY
ROOT Hips
{
    OFFSET 0.000 93.594 0.000
    CHANNELS 6 Xposition Yposition Zposition Yrotation Xrotation Zrotation
    JOINT RightUpLeg
    {
        OFFSET -9.500 -1.594 0.000
        CHANNELS 3 Yrotation Xrotation Zrotation
        JOINT RightLeg
        {
            OFFSET 0.000 -42.000 0.000
            CHANNELS 3 Yrotation Xrotation Zrotation
            JOINT RightFoot
            {
                OFFSET 0.000 -42.000 0.000
                CHANNELS 3 Yrotation Xrotation Zrotation
                End Site
                {
                    OFFSET 0.000 -8.000 17.500
                }
            }
        }
    }
    JOINT LeftUpLeg
    {
        OFFSET 9.500 -1.594 0.000
        CHANNELS 3 Yrotation Xrotation Zrotation
        JOINT LeftLeg
        {
            OFFSET 0.000 -42.000 0.000
            CHANNELS 3 Yrotation Xrotation Zrotation
            JOINT LeftFoot
            {
                OFFSET 0.000 -42.000 0.000
                CHANNELS 3 Yrotation Xrotation Zrotation
                End Site
                {
                    OFFSET 0.000 -8.000 17.500
                }
            }
        }
    }
    JOINT Spine
    {
        OFFSET 0.000 14.348 0.000
        CHANNELS 3 Yrotation Xrotation Zrotation
        JOINT Spine1
        {
            OFFSET 0.000 9.746 0.000
            CHANNELS 3 Yrotation Xrotation Zrotation
            JOINT Spine2
            {
                OFFSET 0.000 10.149 0.000
                CHANNELS 3 Yrotation Xrotation Zrotation
                JOINT Spine3
                {
                    OFFSET 0.000 9.746 0.000
                    CHANNELS 3 Yrotation Xrotation Zrotation
                    JOINT Neck
                    {
                        OFFSET 0.000 10.417 0.000
                        CHANNELS 3 Yrotation Xrotation Zrotation
                        JOINT Head
                        {
                            OFFSET 0.000 9.000 0.000
                            CHANNELS 3 Yrotation Xrotation Zrotation
                            End Site
                            {
                                OFFSET 0.000 16.000 0.000
                            }
                        }
                    }
                    JOINT RightShoulder
                    {
                        OFFSET -3.200 6.945 0.000
                        CHANNELS 3 Yrotation Xrotation Zrotation
                        JOINT RightArm
                        {
                            OFFSET -12.800 0.000 0.000
                            CHANNELS 3 Yrotation Xrotation Zrotation
                            JOINT RightForeArm
                            {
                                OFFSET -27.000 0.000 0.000
                                CHANNELS 3 Yrotation Xrotation Zrotation
                                JOINT RightHand
                                {
                                    OFFSET -26.000 0.000 0.000
                                    CHANNELS 3 Yrotation Xrotation Zrotation
                                    JOINT RightHandThumb1
                                    {
                                        OFFSET -2.560 0.196 3.210
                                        CHANNELS 3 Yrotation Xrotation Zrotation
                                        JOINT RightHandThumb2
                                        {
                                            OFFSET -3.788 0.000 0.000
                                            CHANNELS 3 Yrotation Xrotation Zrotation
                                            JOINT RightHandThumb3
                                            {
                                                OFFSET -2.631 0.000 0.000
                                                CHANNELS 3 Yrotation Xrotation Zrotation
                                                End Site
                                                {
                                                    OFFSET -2.256 0.000 0.000
                                                }
                                            }
                                        }
                                    }
                                    JOINT RightInHandIndex
                                    {
                                        OFFSET -3.316 0.523 2.035
                                        CHANNELS 3 Yrotation Xrotation Zrotation
                                        JOINT RightHandIndex1
                                        {
                                            OFFSET -5.366 -0.094 1.028
                                            CHANNELS 3 Yrotation Xrotation Zrotation
                                            JOINT RightHandIndex2
                                            {
                                                OFFSET -3.723 0.000 0.000
                                                CHANNELS 3 Yrotation Xrotation Zrotation
                                                JOINT RightHandIndex3
                                                {
                                                    OFFSET -2.111 0.000 0.000
                                                    CHANNELS 3 Yrotation Xrotation Zrotation
                                                    End Site
                                                    {
                                                        OFFSET -1.857 0.000 0.000
                                                    }
                                                }
                                            }
                                        }
                                    }
                                    JOINT RightInHandMiddle
                                    {
                                        OFFSET -3.479 0.532 0.778
                                        CHANNELS 3 Yrotation Xrotation Zrotation
                                        JOINT RightHandMiddle1
                                        {
                                            OFFSET -5.322 -0.086 0.323
                                            CHANNELS 3 Yrotation Xrotation Zrotation
                                            JOINT RightHandMiddle2
                                            {
                                                OFFSET -4.062 0.000 0.000
                                                CHANNELS 3 Yrotation Xrotation Zrotation
                                                JOINT RightHandMiddle3
                                                {
                                                    OFFSET -2.547 0.000 0.000
                                                    CHANNELS 3 Yrotation Xrotation Zrotation
                                                    End Site
                                                    {
                                                        OFFSET -2.031 0.000 0.000
                                                    }
                                                }
                                            }
                                        }
                                    }
                                    JOINT RightInHandRing
                                    {
                                        OFFSET -3.461 0.553 -0.133
                                        CHANNELS 3 Yrotation Xrotation Zrotation
                                        JOINT RightHandRing1
                                        {
                                            OFFSET -4.767 -0.023 -0.493
                                            CHANNELS 3 Yrotation Xrotation Zrotation
                                            JOINT RightHandRing2
                                            {
                                                OFFSET -3.541 0.000 0.000
                                                CHANNELS 3 Yrotation Xrotation Zrotation
                                                JOINT RightHandRing3
                                                {
                                                    OFFSET -2.456 0.000 0.000
                                                    CHANNELS 3 Yrotation Xrotation Zrotation
                                                    End Site
                                                    {
                                                        OFFSET -1.910 0.000 0.000
                                                    }
                                                }
                                            }
                                        }
                                    }
                                    JOINT RightInHandPinky
                                    {
                                        OFFSET -3.251 0.483 -1.236
                                        CHANNELS 3 Yrotation Xrotation Zrotation
                                        JOINT RightHandPinky1
                                        {
                                            OFFSET -4.259 -0.023 -1.122
                                            CHANNELS 3 Yrotation Xrotation Zrotation
                                            JOINT RightHandPinky2
                                            {
                                                OFFSET -2.835 0.000 0.000
                                                CHANNELS 3 Yrotation Xrotation Zrotation
                                                JOINT RightHandPinky3
                                                {
                                                    OFFSET -1.792 0.000 0.000
                                                    CHANNELS 3 Yrotation Xrotation Zrotation
                                                    End Site
                                                    {
                                                        OFFSET -1.692 0.000 0.000
                                                    }
                                                }
                                            }
                                        }
                                    }
                                }
                            }
                        }
                    }
                    JOINT LeftShoulder
                    {
                        OFFSET 3.200 6.945 0.000
                        CHANNELS 3 Yrotation Xrotation Zrotation
                        JOINT LeftArm
                        {
                            OFFSET 12.800 0.000 0.000
                            CHANNELS 3 Yrotation Xrotation Zrotation
                            JOINT LeftForeArm
                            {
                                OFFSET 27.000 0.000 0.000
                                CHANNELS 3 Yrotation Xrotation Zrotation
                                JOINT LeftHand
                                {
                                    OFFSET 26.000 0.000 0.000
                                    CHANNELS 3 Yrotation Xrotation Zrotation
                                    JOINT LeftHandThumb1
                                    {
                                        OFFSET 2.560 0.196 3.210
                                        CHANNELS 3 Yrotation Xrotation Zrotation
                                        JOINT LeftHandThumb2
                                        {
                                            OFFSET 3.788 0.000 0.000
                                            CHANNELS 3 Yrotation Xrotation Zrotation
                                            JOINT LeftHandThumb3
                                            {
                                                OFFSET 2.631 0.000 0.000
                                                CHANNELS 3 Yrotation Xrotation Zrotation
                                                End Site
                                                {
                                                    OFFSET 2.256 0.000 0.000
                                                }
                                            }
                                        }
                                    }
                                    JOINT LeftInHandIndex
                                    {
                                        OFFSET 3.316 0.523 2.035
                                        CHANNELS 3 Yrotation Xrotation Zrotation
                                        JOINT LeftHandIndex1
                                        {
                                            OFFSET 5.366 -0.094 1.028
                                            CHANNELS 3 Yrotation Xrotation Zrotation
                                            JOINT LeftHandIndex2
                                            {
                                                OFFSET 3.723 0.000 0.000
                                                CHANNELS 3 Yrotation Xrotation Zrotation
                                                JOINT LeftHandIndex3
                                                {
                                                    OFFSET 2.111 0.000 0.000
                                                    CHANNELS 3 Yrotation Xrotation Zrotation
                                                    End Site
                                                    {
                                                        OFFSET 1.857 0.000 0.000
                                                    }
                                                }
                                            }
                                        }
                                    }
                                    JOINT LeftInHandMiddle
                                    {
                                        OFFSET 3.479 0.532 0.778
                                        CHANNELS 3 Yrotation Xrotation Zrotation
                                        JOINT LeftHandMiddle1
                                        {
                                            OFFSET 5.322 -0.086 0.323
                                            CHANNELS 3 Yrotation Xrotation Zrotation
                                            JOINT LeftHandMiddle2
                                            {
                                                OFFSET 4.062 0.000 0.000
                                                CHANNELS 3 Yrotation Xrotation Zrotation
                                                JOINT LeftHandMiddle3
                                                {
                                                    OFFSET 2.547 0.000 0.000
                                                    CHANNELS 3 Yrotation Xrotation Zrotation
                                                    End Site
                                                    {
                                                        OFFSET 2.031 0.000 0.000
                                                    }
                                                }
                                            }
                                        }
                                    }
                                    JOINT LeftInHandRing
                                    {
                                        OFFSET 3.461 0.553 -0.133
                                        CHANNELS 3 Yrotation Xrotation Zrotation
                                        JOINT LeftHandRing1
                                        {
                                            OFFSET 4.767 -0.023 -0.493
                                            CHANNELS 3 Yrotation Xrotation Zrotation
                                            JOINT LeftHandRing2
                                            {
                                                OFFSET 3.541 0.000 0.000
                                                CHANNELS 3 Yrotation Xrotation Zrotation
                                                JOINT LeftHandRing3
                                                {
                                                    OFFSET 2.456 0.000 0.000
                                                    CHANNELS 3 Yrotation Xrotation Zrotation
                                                    End Site
                                                    {
                                                        OFFSET 1.910 0.000 0.000
                                                    }
                                                }
                                            }
                                        }
                                    }
                                    JOINT LeftInHandPinky
                                    {
                                        OFFSET 3.251 0.483 -1.236
                                        CHANNELS 3 Yrotation Xrotation Zrotation
                                        JOINT LeftHandPinky1
                                        {
                                            OFFSET 4.259 -0.023 -1.122
                                            CHANNELS 3 Yrotation Xrotation Zrotation
                                            JOINT LeftHandPinky2
                                            {
                                                OFFSET 2.835 0.000 0.000
                                                CHANNELS 3 Yrotation Xrotation Zrotation
                                                JOINT LeftHandPinky3
                                                {
                                                    OFFSET 1.792 0.000 0.000
                                                    CHANNELS 3 Yrotation Xrotation Zrotation
                                                    End Site
                                                    {
                                                        OFFSET 1.692 0.000 0.000
                                                    }
                                                }
                                            }
                                        }
                                    }
                                }
                            }
                        }
                    }
                }
            }
        }
    }
}
MOTION
Frames: 6
Frame Time: 0.008
50.27 94.85 14.58 -153.22 10.88 -13.38 -10.19 -9.11 -14.85 0.00 32.49 0.00 15.84 -14.31 42.02 3.07 -22.12 5.55 0.00 24.91 0.00 -1.21 -12.60 4.23 2.14 -2.01 4.77 0.52 -0.52 1.20 0.84 -0.89 1.99 0.76 -0.04 0.12 0.76 -0.05 0.12 13.72 -1.38 2.00 -10.53 -11.85 -6.75 -11.75 -32.13 31.30 -9.45 25.51 -1.66 2.60 8.57 3.02 21.86 -0.00 30.00 -10.00 -0.00 0.00 -10.00 -0.00 0.00 0.00 -0.00 0.00 2.55 -0.00 20.00 0.00 -0.00 24.00 0.00 -0.00 20.00 0.00 -0.00 0.00 0.00 -0.00 20.00 0.00 -0.00 24.00 0.00 -0.00 20.00 0.00 -0.00 0.00 -3.00 -0.00 20.00 0.00 -0.00 24.00 0.00 -0.00 20.00 0.00 -0.00 0.00 -8.83 -0.00 20.00 0.00 -0.00 24.00 0.00 -0.00 20.00 0.84 3.04 4.46 14.82 -23.85 -20.21 -16.43 45.40 -2.08 -1.60 40.75 18.73 -21.86 -0.00 -30.00 10.00 -0.00 0.00 10.00 -0.00 0.00 0.00 -0.00 0.00 -2.55 -0.00 -20.00 0.00 -0.00 -24.00 0.00 -0.00 -20.00 0.00 -0.00 0.00 0.00 -0.00 -20.00 0.00 -0.00 -24.00 0.00 -0.00 -20.00 0.00 -0.00 0.00 3.00 -0.00 -20.00 0.00 -0.00 -24.00 0.00 -0.00 -20.00 0.00 -0.00 0.00 8.83 -0.00 -20.00 0.00 -0.00 -24.00 0.00 -0.00 -20.00 
50.24 94.85 14.62 -152.84 10.82 -13.34 -10.02 -9.35 -15.07 -0.00 31.94 -0.00 16.22 -14.54 42.30 2.86 -22.04 5.54 -0.00 24.90 -0.00 -1.37 -12.53 4.32 1.92 -1.94 4.80 0.47 -0.50 1.21 0.75 -0.86 2.00 0.76 -0.04 0.12 0.76 -0.04 0.12 13.78 -1.31 1.95 -9.62 -11.75 -7.09 -11.75 -32.61 31.34 -9.81 25.51 -2.03 2.60 8.57 2.72 21.86 -0.00 30.00 -10.00 -0.00 0.00 -10.00 -0.00 0.00 0.00 -0.00 0.00 2.55 -0.00 20.00 0.00 -0.00 24.00 0.00 -0.00 20.00 0.00 -0.00 0.00 0.00 -0.00 20.00 0.00 -0.00 24.00 0.00 -0.00 20.00 0.00 -0.00 0.00 -3.00 -0.00 20.00 0.00 -0.00 24.00 0.00 -0.00 20.00 0.00 -0.00 0.00 -8.83 -0.00 20.00 0.00 -0.00 24.00 0.00 -0.00 20.00 0.84 3.04 4.46 16.29 -23.58 -20.64 -16.21 45.28 -2.02 -1.38 40.76 18.96 -21.86 -0.00 -30.00 10.00 -0.00 0.00 10.00 -0.00 0.00 0.00 -0.00 0.00 -2.55 -0.00 -20.00 0.00 -0.00 -24.00 0.00 -0.00 -20.00 0.00 -0.00 0.00 0.00 -0.00 -20.00 0.00 -0.00 -24.00 0.00 -0.00 -20.00 0.00 -0.00 0.00 3.00 -0.00 -20.00 0.00 -0.00 -24.00 0.00 -0.00 -20.00 0.00 -0.00 0.00 8.83 -0.00 -20.00 0.00 -0.00 -24.00 0.00 -0.00 -20.00 
50.22 94.84 14.65 -152.46 10.75 -13.31 -9.84 -9.53 -15.26 -0.00 31.27 -0.00 16.59 -14.78 42.53 2.62 -21.95 5.54 0.00 24.90 -0.00 -1.50 -12.47 4.38 1.71 -1.86 4.82 0.42 -0.48 1.21 0.67 -0.82 2.01 0.76 -0.04 0.11 0.77 -0.04 0.11 13.86 -1.24 1.90 -9.62 -11.75 -7.09 -10.73 -33.10 31.16 -10.16 25.52 -2.37 2.63 8.56 2.41 21.86 -0.00 30.00 -10.00 -0.00 0.00 -10.00 -0.00 0.00 0.00 -0.00 0.00 2.55 -0.00 20.00 0.00 -0.00 24.00 0.00 -0.00 20.00 0.00 -0.00 0.00 0.00 -0.00 20.00 0.00 -0.00 24.00 0.00 -0.00 20.00 0.00 -0.00 0.00 -3.00 -0.00 20.00 0.00 -0.00 24.00 0.00 -0.00 20.00 0.00 -0.00 0.00 -8.83 -0.00 20.00 0.00 -0.00 24.00 0.00 -0.00 20.00 3.29 3.51 4.13 15.38 -23.99 -20.84 -17.94 45.42 -2.32 -0.70 40.42 18.01 -21.86 -0.00 -30.00 10.00 -0.00 0.00 10.00 -0.00 0.00 0.00 -0.00 0.00 -2.55 -0.00 -20.00 0.00 -0.00 -24.00 0.00 -0.00 -20.00 0.00 -0.00 0.00 0.00 -0.00 -20.00 0.00 -0.00 -24.00 0.00 -0.00 -20.00 0.00 -0.00 0.00 3.00 -0.00 -20.00 0.00 -0.00 -24.00 0.00 -0.00 -20.00 0.00 -0.00 0.00 8.83 -0.00 -20.00 0.00 -0.00 -24.00 0.00 -0.00 -20.00 
50.20 94.83 14.68 -152.08 10.68 -13.27 -9.63 -9.82 -15.44 0.00 30.81 0.00 16.82 -14.92 42.74 2.37 -21.85 5.53 0.00 24.90 0.00 -1.61 -12.41 4.44 1.49 -1.78 4.84 0.36 -0.46 1.22 0.58 -0.78 2.02 0.77 -0.03 0.11 0.77 -0.04 0.11 13.93 -1.16 1.84 -9.63 -11.75 -7.09 -9.68 -33.55 30.97 -10.50 25.52 -2.69 2.66 8.52 2.08 21.86 -0.00 30.00 -10.00 -0.00 0.00 -10.00 -0.00 0.00 0.00 -0.00 0.00 2.55 -0.00 20.00 0.00 -0.00 24.00 0.00 -0.00 20.00 0.00 -0.00 0.00 0.00 -0.00 20.00 0.00 -0.00 24.00 0.00 -0.00 20.00 0.00 -0.00 0.00 -3.00 -0.00 20.00 0.00 -0.00 24.00 0.00 -0.00 20.00 0.00 -0.00 0.00 -8.83 -0.00 20.00 0.00 -0.00 24.00 0.00 -0.00 20.00 4.05 3.69 4.05 16.06 -23.86 -21.23 -19.47 45.48 -2.54 -0.04 40.11 17.05 -21.86 -0.00 -30.00 10.00 -0.00 0.00 10.00 -0.00 0.00 0.00 -0.00 0.00 -2.55 -0.00 -20.00 0.00 -0.00 -24.00 0.00 -0.00 -20.00 0.00 -0.00 0.00 0.00 -0.00 -20.00 0.00 -0.00 -24.00 0.00 -0.00 -20.00 0.00 -0.00 0.00 3.00 -0.00 -20.00 0.00 -0.00 -24.00 0.00 -0.00 -20.00 0.00 -0.00 0.00 8.83 -0.00 -20.00 0.00 -0.00 -24.00 0.00 -0.00 -20.00 
50.19 94.83 14.71 -151.70 10.58 -13.22 -9.23 -10.22 -15.59 -0.00 30.52 0.00 16.82 -15.05 42.95 2.17 -21.74 5.51 -0.00 24.90 -0.00 -1.76 -12.37 4.51 3.98 -1.51 4.54 0.99 -0.40 1.15 1.62 -0.73 1.90 0.55 -0.08 0.12 0.55 -0.08 0.12 9.91 -1.81 2.00 -11.23 -12.02 -7.66 -11.55 -33.84 31.26 -10.84 25.50 -2.98 2.69 8.45 1.78 21.86 -0.00 30.00 -10.00 -0.00 0.00 -10.00 -0.00 0.00 0.00 -0.00 0.00 2.55 -0.00 20.00 0.00 -0.00 24.00 0.00 -0.00 20.00 0.00 -0.00 0.00 0.00 -0.00 20.00 0.00 -0.00 24.00 0.00 -0.00 20.00 0.00 -0.00 0.00 -3.00 -0.00 20.00 0.00 -0.00 24.00 0.00 -0.00 20.00 0.00 -0.00 0.00 -8.83 -0.00 20.00 0.00 -0.00 24.00 0.00 -0.00 20.00 3.28 4.15 3.58 13.85 -24.93 -21.06 -20.96 45.48 -2.69 0.63 39.83 16.13 -21.86 -0.00 -30.00 10.00 -0.00 0.00 10.00 -0.00 0.00 0.00 -0.00 0.00 -2.55 -0.00 -20.00 0.00 -0.00 -24.00 0.00 -0.00 -20.00 0.00 -0.00 0.00 0.00 -0.00 -20.00 0.00 -0.00 -24.00 0.00 -0.00 -20.00 0.00 -0.00 0.00 3.00 -0.00 -20.00 0.00 -0.00 -24.00 0.00 -0.00 -20.00 0.00 -0.00 0.00 8.83 -0.00 -20.00 0.00 -0.00 -24.00 0.00 -0.00 -20.00 
50.18 94.82 14.77 -151.34 10.49 -13.15 -9.01 -10.71 -15.77 0.00 30.29 0.00 17.00 -15.15 43.09 1.98 -21.64 5.46 0.00 24.90 0.00 -1.89 -12.30 4.62 4.14 -1.33 4.56 1.03 -0.36 1.15 1.69 -0.66 1.91 0.52 -0.09 0.11 0.52 -0.09 0.11 9.38 -1.98 1.93 -10.94 -12.09 -7.97 -11.35 -34.22 31.18 -11.18 25.45 -3.29 2.73 8.37 1.51 21.86 -0.00 30.00 -10.00 -0.00 0.00 -10.00 -0.00 0.00 0.00 -0.00 0.00 2.55 -0.00 20.00 0.00 -0.00 24.00 0.00 -0.00 20.00 0.00 -0.00 0.00 0.00 -0.00 20.00 0.00 -0.00 24.00 0.00 -0.00 20.00 0.00 -0.00 0.00 -3.00 -0.00 20.00 0.00 -0.00 24.00 0.00 -0.00 20.00 0.00 -0.00 0.00 -8.83 -0.00 20.00 0.00 -0.00 24.00 0.00 -0.00 20.00 3.35 4.26 3.28 14.57 -24.77 -21.37 -22.41 45.40 -2.75 1.28 39.59 15.21 -21.86 -0.00 -30.00 10.00 -0.00 0.00 10.00 -0.00 0.00 0.00 -0.00 0.00 -2.55 -0.00 -20.00 0.00 -0.00 -24.00 0.00 -0.00 -20.00 0.00 -0.00 0.00 0.00 -0.00 -20.00 0.00 -0.00 -24.00 0.00 -0.00 -20.00 0.00 -0.00 0.00 3.00 -0.00 -20.00 0.00 -0.00 -24.00 0.00 -0.00 -20.00 0.00 -0.00 0.00 8.83 -0.00 -20.00 0.00 -0.00 -24.00 0.00 -0.00 -20.00 
